<svg width="64" height="64" viewBox="0 0 64 64" fill="none" xmlns="http://www.w3.org/2000/svg">
<rect width="64" height="64" rx="13" fill="#360909"/>
<path d="M31.32 40.64C29.7733 40.64 28.36 40.3067 27.08 39.64C25.8267 38.9733 24.8267 38 24.08 36.72C23.36 35.4133 23 33.8267 23 31.96C23 30.12 23.3867 28.5333 24.16 27.2C24.9333 25.84 25.96 24.8 27.24 24.08C28.5467 23.36 29.9733 23 31.52 23C33.0667 23 34.3733 23.36 35.44 24.08C36.5067 24.7733 37.32 25.6 37.88 26.56L37.64 27.2L38 23.68H41.44V40.24H37.72V35.92L38.12 36.88C38.0133 37.1467 37.7733 37.4933 37.4 37.92C37.0533 38.32 36.5733 38.7333 35.96 39.16C35.3733 39.5867 34.6933 39.9467 33.92 40.24C33.1467 40.5067 32.28 40.64 31.32 40.64ZM32.32 37.56C33.2533 37.56 34.0933 37.3867 34.84 37.04C35.5867 36.6933 36.2 36.2133 36.68 35.6C37.1867 34.96 37.5333 34.2 37.72 33.32V30.08C37.5067 29.28 37.1333 28.5867 36.6 28C36.0667 27.3867 35.4267 26.92 34.68 26.6C33.9333 26.2533 33.1067 26.08 32.2 26.08C31.2133 26.08 30.3067 26.32 29.48 26.8C28.6533 27.28 27.9867 27.9467 27.48 28.8C27 29.6533 26.76 30.6533 26.76 31.8C26.76 32.8667 27.0133 33.84 27.52 34.72C28.0267 35.6 28.7067 36.2933 29.56 36.8C30.4133 37.3067 31.3333 37.56 32.32 37.56Z" fill="#F3EAF0"/>
</svg>
